<svg style="overflow: hidden; -moz-user-select: none; cursor: default; position: relative; background-color: rgb(255, 255, 255);" xmlns="http://www.w3.org/2000/svg" width="3540" version="1.1" height="1022"><desc> test foo</desc><rect  fill="#808080" ry="0" rx="0" r="0" height="1022" width="3540" y="0" x="0"></rect><rect  fill="black" ry="0" rx="0" r="0" height="0" width="150" y="400" x="220"></rect><rect  fill="black" ry="0" rx="0" r="0" height="0" width="150" y="400" x="520"></rect><rect  fill="black" ry="0" rx="0" r="0" height="0" width="150" y="400" x="820"></rect><rect  fill="black" ry="0" rx="0" r="0" height="0" width="150" y="400" x="1120"></rect><rect  fill="black" ry="0" rx="0" r="0" height="0" width="150" y="400" x="1420"></rect><rect  fill="black" ry="0" rx="0" r="0" height="0" width="150" y="400" x="1720"></rect><rect  fill="black" ry="0" rx="0" r="0" height="0" width="150" y="400" x="2020"></rect><rect  fill="black" ry="0" rx="0" r="0" height="0" width="150" y="400" x="2320"></rect><rect  fill="black" ry="0" rx="0" r="0" height="0" width="150" y="400" x="2620"></rect><rect  fill="black" ry="0" rx="0" r="0" height="3.9349" width="150" y="400" x="2920"></rect><text transform="rotate(90,2935,401.967)" font-weight="normal" font-size="12.5" font-family="Verdana" fill="white" y="401.967" x="2935" style="text-anchor: end;">Fusobacterium  mortiferum_9</text>
<rect  fill="white" ry="0" rx="0" r="0" height="56.1746" width="150" y="400" x="220"></rect><text transform="rotate(90,248.333,428.087)" font-weight="normal" font-size="12.5" font-family="Verdana" fill="red" y="428.087" x="248.333" style="text-anchor: end;">Fusobacterium  mortiferum_8</text>
<rect  fill="white" ry="0" rx="0" r="0" height="48.4262" width="150" y="400" x="520"></rect><text transform="rotate(90,548.333,424.213)" font-weight="normal" font-size="12.5" font-family="Verdana" fill="red" y="424.213" x="548.333" style="text-anchor: end;">Fusobacterium  mortiferum_8</text>
<rect  fill="white" ry="0" rx="0" r="0" height="44.3695" width="150" y="400" x="820"></rect><text transform="rotate(90,848.333,422.185)" font-weight="normal" font-size="12.5" font-family="Verdana" fill="red" y="422.185" x="848.333" style="text-anchor: end;">Fusobacterium  mortiferum_8</text>
<rect  fill="white" ry="0" rx="0" r="0" height="0" width="150" y="400" x="1120"></rect><rect  fill="white" ry="0" rx="0" r="0" height="0" width="150" y="400" x="1420"></rect><rect  fill="white" ry="0" rx="0" r="0" height="0" width="150" y="400" x="1720"></rect><rect  fill="white" ry="0" rx="0" r="0" height="7.8849" width="150" y="400" x="2020"></rect><text transform="rotate(90,2048.33,403.942)" font-weight="normal" font-size="12.5" font-family="Verdana" fill="red" y="403.942" x="2048.33" style="text-anchor: end;">Fusobacterium  mortiferum_8</text>
<rect  fill="white" ry="0" rx="0" r="0" height="0" width="150" y="400" x="2320"></rect><rect  fill="white" ry="0" rx="0" r="0" height="2.97239" width="150" y="400" x="2620"></rect><text transform="rotate(90,2648.33,401.486)" font-weight="normal" font-size="12.5" font-family="Verdana" fill="red" y="401.486" x="2648.33" style="text-anchor: end;">Fusobacterium  mortiferum_8</text>
<rect  fill="white" ry="0" rx="0" r="0" height="0" width="150" y="403.935" x="2920"></rect><rect  fill="red" ry="0" rx="0" r="0" height="0" width="150" y="456.175" x="220"></rect><rect  fill="red" ry="0" rx="0" r="0" height="0" width="150" y="448.426" x="520"></rect><rect  fill="red" ry="0" rx="0" r="0" height="0" width="150" y="444.369" x="820"></rect><rect  fill="red" ry="0" rx="0" r="0" height="0" width="150" y="400" x="1120"></rect><rect  fill="red" ry="0" rx="0" r="0" height="0" width="150" y="400" x="1420"></rect><rect  fill="red" ry="0" rx="0" r="0" height="0" width="150" y="400" x="1720"></rect><rect  fill="red" ry="0" rx="0" r="0" height="0" width="150" y="407.885" x="2020"></rect><rect  fill="red" ry="0" rx="0" r="0" height="0" width="150" y="400" x="2320"></rect><rect  fill="red" ry="0" rx="0" r="0" height="2.47321" width="150" y="402.972" x="2620"></rect><text transform="rotate(90,2661.67,404.209)" font-weight="normal" font-size="12.5" font-family="Verdana" fill="blue" y="404.209" x="2661.67" style="text-anchor: end;">Fusobacterium  mortiferum_7</text>
<rect  fill="red" ry="0" rx="0" r="0" height="0" width="150" y="403.935" x="2920"></rect><rect  fill="blue" ry="0" rx="0" r="0" height="0" width="150" y="456.175" x="220"></rect><rect  fill="blue" ry="0" rx="0" r="0" height="0" width="150" y="448.426" x="520"></rect><rect  fill="blue" ry="0" rx="0" r="0" height="0" width="150" y="444.369" x="820"></rect><rect  fill="blue" ry="0" rx="0" r="0" height="0" width="150" y="400" x="1120"></rect><rect  fill="blue" ry="0" rx="0" r="0" height="0" width="150" y="400" x="1420"></rect><rect  fill="blue" ry="0" rx="0" r="0" height="0" width="150" y="400" x="1720"></rect><rect  fill="blue" ry="0" rx="0" r="0" height="0" width="150" y="407.885" x="2020"></rect><rect  fill="blue" ry="0" rx="0" r="0" height="0" width="150" y="400" x="2320"></rect><rect  fill="blue" ry="0" rx="0" r="0" height="2.09883" width="150" y="405.446" x="2620"></rect><text transform="rotate(90,2675,406.495)" font-weight="normal" font-size="12.5" font-family="Verdana" fill="green" y="406.495" x="2675" style="text-anchor: end;">Fusobacterium  mortiferum_6</text>
<rect  fill="blue" ry="0" rx="0" r="0" height="0" width="150" y="403.935" x="2920"></rect><rect  fill="green" ry="0" rx="0" r="0" height="0" width="150" y="456.175" x="220"></rect><rect  fill="green" ry="0" rx="0" r="0" height="0" width="150" y="448.426" x="520"></rect><rect  fill="green" ry="0" rx="0" r="0" height="0" width="150" y="444.369" x="820"></rect><rect  fill="green" ry="0" rx="0" r="0" height="0" width="150" y="400" x="1120"></rect><rect  fill="green" ry="0" rx="0" r="0" height="0" width="150" y="400" x="1420"></rect><rect  fill="green" ry="0" rx="0" r="0" height="0" width="150" y="400" x="1720"></rect><rect  fill="green" ry="0" rx="0" r="0" height="0" width="150" y="407.885" x="2020"></rect><rect  fill="green" ry="0" rx="0" r="0" height="2.42603" width="150" y="400" x="2320"></rect><text transform="rotate(90,2388.33,401.213)" font-weight="normal" font-size="12.5" font-family="Verdana" fill="black" y="401.213" x="2388.33" style="text-anchor: end;">Fusobacterium  mortiferum_5</text>
<rect  fill="green" ry="0" rx="0" r="0" height="0" width="150" y="407.544" x="2620"></rect><rect  fill="green" ry="0" rx="0" r="0" height="0" width="150" y="403.935" x="2920"></rect><rect  fill="black" ry="0" rx="0" r="0" height="28.9924" width="150" y="456.175" x="220"></rect><text transform="rotate(90,301.667,470.671)" font-weight="normal" font-size="12.5" font-family="Verdana" fill="white" y="470.671" x="301.667" style="text-anchor: end;">Fusobacterium  mortiferum_4</text>
<rect  fill="black" ry="0" rx="0" r="0" height="24.5709" width="150" y="448.426" x="520"></rect><text transform="rotate(90,601.667,460.712)" font-weight="normal" font-size="12.5" font-family="Verdana" fill="white" y="460.712" x="601.667" style="text-anchor: end;">Fusobacterium  mortiferum_4</text>
<rect  fill="black" ry="0" rx="0" r="0" height="22.5347" width="150" y="444.369" x="820"></rect><text transform="rotate(90,901.667,455.637)" font-weight="normal" font-size="12.5" font-family="Verdana" fill="white" y="455.637" x="901.667" style="text-anchor: end;">Fusobacterium  mortiferum_4</text>
<rect  fill="black" ry="0" rx="0" r="0" height="0" width="150" y="400" x="1120"></rect><rect  fill="black" ry="0" rx="0" r="0" height="0" width="150" y="400" x="1420"></rect><rect  fill="black" ry="0" rx="0" r="0" height="0" width="150" y="400" x="1720"></rect><rect  fill="black" ry="0" rx="0" r="0" height="0" width="150" y="407.885" x="2020"></rect><rect  fill="black" ry="0" rx="0" r="0" height="0" width="150" y="402.426" x="2320"></rect><rect  fill="black" ry="0" rx="0" r="0" height="1.74713" width="150" y="407.544" x="2620"></rect><text transform="rotate(90,2701.67,408.418)" font-weight="normal" font-size="12.5" font-family="Verdana" fill="white" y="408.418" x="2701.67" style="text-anchor: end;">Fusobacterium  mortiferum_4</text>
<rect  fill="black" ry="0" rx="0" r="0" height="0" width="150" y="403.935" x="2920"></rect><rect  fill="white" ry="0" rx="0" r="0" height="0" width="150" y="485.167" x="220"></rect><rect  fill="white" ry="0" rx="0" r="0" height="0" width="150" y="472.997" x="520"></rect><rect  fill="white" ry="0" rx="0" r="0" height="0" width="150" y="466.904" x="820"></rect><rect  fill="white" ry="0" rx="0" r="0" height="0" width="150" y="400" x="1120"></rect><rect  fill="white" ry="0" rx="0" r="0" height="0" width="150" y="400" x="1420"></rect><rect  fill="white" ry="0" rx="0" r="0" height="0" width="150" y="400" x="1720"></rect><rect  fill="white" ry="0" rx="0" r="0" height="0" width="150" y="407.885" x="2020"></rect><rect  fill="white" ry="0" rx="0" r="0" height="0" width="150" y="402.426" x="2320"></rect><rect  fill="white" ry="0" rx="0" r="0" height="0" width="150" y="409.292" x="2620"></rect><rect  fill="white" ry="0" rx="0" r="0" height="0.795923" width="150" y="403.935" x="2920"></rect><text transform="rotate(90,3015,404.333)" font-weight="normal" font-size="12.5" font-family="Verdana" fill="red" y="404.333" x="3015" style="text-anchor: end;">Fusobacterium  mortiferum_3</text>
<rect  fill="red" ry="0" rx="0" r="0" height="0" width="150" y="485.167" x="220"></rect><rect  fill="red" ry="0" rx="0" r="0" height="0" width="150" y="472.997" x="520"></rect><rect  fill="red" ry="0" rx="0" r="0" height="0" width="150" y="466.904" x="820"></rect><rect  fill="red" ry="0" rx="0" r="0" height="0" width="150" y="400" x="1120"></rect><rect  fill="red" ry="0" rx="0" r="0" height="0" width="150" y="400" x="1420"></rect><rect  fill="red" ry="0" rx="0" r="0" height="0" width="150" y="400" x="1720"></rect><rect  fill="red" ry="0" rx="0" r="0" height="0" width="150" y="407.885" x="2020"></rect><rect  fill="red" ry="0" rx="0" r="0" height="0" width="150" y="402.426" x="2320"></rect><rect  fill="red" ry="0" rx="0" r="0" height="0.397075" width="150" y="409.292" x="2620"></rect><text transform="rotate(90,2728.33,409.49)" font-weight="normal" font-size="12.5" font-family="Verdana" fill="blue" y="409.49" x="2728.33" style="text-anchor: end;">Fusobacterium  mortiferum_2</text>
<rect  fill="red" ry="0" rx="0" r="0" height="0" width="150" y="404.731" x="2920"></rect><rect  fill="blue" ry="0" rx="0" r="0" height="0" width="150" y="485.167" x="220"></rect><rect  fill="blue" ry="0" rx="0" r="0" height="0" width="150" y="472.997" x="520"></rect><rect  fill="blue" ry="0" rx="0" r="0" height="8.46799" width="150" y="466.904" x="820"></rect><text transform="rotate(90,941.667,471.138)" font-weight="normal" font-size="12.5" font-family="Verdana" fill="green" y="471.138" x="941.667" style="text-anchor: end;">Fusobacterium  mortiferum_19</text>
<rect  fill="blue" ry="0" rx="0" r="0" height="0" width="150" y="400" x="1120"></rect><rect  fill="blue" ry="0" rx="0" r="0" height="0" width="150" y="400" x="1420"></rect><rect  fill="blue" ry="0" rx="0" r="0" height="0" width="150" y="400" x="1720"></rect><rect  fill="blue" ry="0" rx="0" r="0" height="0" width="150" y="407.885" x="2020"></rect><rect  fill="blue" ry="0" rx="0" r="0" height="0" width="150" y="402.426" x="2320"></rect><rect  fill="blue" ry="0" rx="0" r="0" height="0" width="150" y="409.689" x="2620"></rect><rect  fill="blue" ry="0" rx="0" r="0" height="0" width="150" y="404.731" x="2920"></rect><rect  fill="green" ry="0" rx="0" r="0" height="0" width="150" y="485.167" x="220"></rect><rect  fill="green" ry="0" rx="0" r="0" height="6.04334" width="150" y="472.997" x="520"></rect><text transform="rotate(90,535,476.019)" font-weight="normal" font-size="12.5" font-family="Verdana" fill="black" y="476.019" x="535" style="text-anchor: end;">Fusobacterium  mortiferum_18</text>
<rect  fill="green" ry="0" rx="0" r="0" height="0" width="150" y="475.372" x="820"></rect><rect  fill="green" ry="0" rx="0" r="0" height="0" width="150" y="400" x="1120"></rect><rect  fill="green" ry="0" rx="0" r="0" height="0" width="150" y="400" x="1420"></rect><rect  fill="green" ry="0" rx="0" r="0" height="0" width="150" y="400" x="1720"></rect><rect  fill="green" ry="0" rx="0" r="0" height="0" width="150" y="407.885" x="2020"></rect><rect  fill="green" ry="0" rx="0" r="0" height="0" width="150" y="402.426" x="2320"></rect><rect  fill="green" ry="0" rx="0" r="0" height="0" width="150" y="409.689" x="2620"></rect><rect  fill="green" ry="0" rx="0" r="0" height="0" width="150" y="404.731" x="2920"></rect><rect  fill="black" ry="0" rx="0" r="0" height="0" width="150" y="485.167" x="220"></rect><rect  fill="black" ry="0" rx="0" r="0" height="0" width="150" y="479.041" x="520"></rect><rect  fill="black" ry="0" rx="0" r="0" height="0" width="150" y="475.372" x="820"></rect><rect  fill="black" ry="0" rx="0" r="0" height="0" width="150" y="400" x="1120"></rect><rect  fill="black" ry="0" rx="0" r="0" height="27.5886" width="150" y="400" x="1420"></rect><text transform="rotate(90,1448.33,413.794)" font-weight="normal" font-size="12.5" font-family="Verdana" fill="white" y="413.794" x="1448.33" style="text-anchor: end;">Fusobacterium  mortiferum_17</text>
<rect  fill="black" ry="0" rx="0" r="0" height="0" width="150" y="400" x="1720"></rect><rect  fill="black" ry="0" rx="0" r="0" height="0" width="150" y="407.885" x="2020"></rect><rect  fill="black" ry="0" rx="0" r="0" height="0" width="150" y="402.426" x="2320"></rect><rect  fill="black" ry="0" rx="0" r="0" height="0" width="150" y="409.689" x="2620"></rect><rect  fill="black" ry="0" rx="0" r="0" height="0" width="150" y="404.731" x="2920"></rect><rect  fill="white" ry="0" rx="0" r="0" height="0" width="150" y="485.167" x="220"></rect><rect  fill="white" ry="0" rx="0" r="0" height="0" width="150" y="479.041" x="520"></rect><rect  fill="white" ry="0" rx="0" r="0" height="0" width="150" y="475.372" x="820"></rect><rect  fill="white" ry="0" rx="0" r="0" height="0" width="150" y="400" x="1120"></rect><rect  fill="white" ry="0" rx="0" r="0" height="25.8087" width="150" y="427.589" x="1420"></rect><text transform="rotate(90,1461.67,440.493)" font-weight="normal" font-size="12.5" font-family="Verdana" fill="red" y="440.493" x="1461.67" style="text-anchor: end;">Fusobacterium  mortiferum_16</text>
<rect  fill="white" ry="0" rx="0" r="0" height="0" width="150" y="400" x="1720"></rect><rect  fill="white" ry="0" rx="0" r="0" height="0" width="150" y="407.885" x="2020"></rect><rect  fill="white" ry="0" rx="0" r="0" height="0" width="150" y="402.426" x="2320"></rect><rect  fill="white" ry="0" rx="0" r="0" height="0" width="150" y="409.689" x="2620"></rect><rect  fill="white" ry="0" rx="0" r="0" height="0" width="150" y="404.731" x="2920"></rect><rect  fill="red" ry="0" rx="0" r="0" height="0" width="150" y="485.167" x="220"></rect><rect  fill="red" ry="0" rx="0" r="0" height="0" width="150" y="479.041" x="520"></rect><rect  fill="red" ry="0" rx="0" r="0" height="0" width="150" y="475.372" x="820"></rect><rect  fill="red" ry="0" rx="0" r="0" height="0" width="150" y="400" x="1120"></rect><rect  fill="red" ry="0" rx="0" r="0" height="7.20054" width="150" y="453.397" x="1420"></rect><text transform="rotate(90,1475,456.998)" font-weight="normal" font-size="12.5" font-family="Verdana" fill="blue" y="456.998" x="1475" style="text-anchor: end;">Fusobacterium  mortiferum_15</text>
<rect  fill="red" ry="0" rx="0" r="0" height="0" width="150" y="400" x="1720"></rect><rect  fill="red" ry="0" rx="0" r="0" height="0" width="150" y="407.885" x="2020"></rect><rect  fill="red" ry="0" rx="0" r="0" height="0" width="150" y="402.426" x="2320"></rect><rect  fill="red" ry="0" rx="0" r="0" height="0" width="150" y="409.689" x="2620"></rect><rect  fill="red" ry="0" rx="0" r="0" height="0" width="150" y="404.731" x="2920"></rect><rect  fill="blue" ry="0" rx="0" r="0" height="0" width="150" y="485.167" x="220"></rect><rect  fill="blue" ry="0" rx="0" r="0" height="0" width="150" y="479.041" x="520"></rect><rect  fill="blue" ry="0" rx="0" r="0" height="0" width="150" y="475.372" x="820"></rect><rect  fill="blue" ry="0" rx="0" r="0" height="0" width="150" y="400" x="1120"></rect><rect  fill="blue" ry="0" rx="0" r="0" height="0" width="150" y="460.598" x="1420"></rect><rect  fill="blue" ry="0" rx="0" r="0" height="0.974934" width="150" y="400" x="1720"></rect><text transform="rotate(90,1788.33,400.487)" font-weight="normal" font-size="12.5" font-family="Verdana" fill="green" y="400.487" x="1788.33" style="text-anchor: end;">Fusobacterium  mortiferum_14</text>
<rect  fill="blue" ry="0" rx="0" r="0" height="0" width="150" y="407.885" x="2020"></rect><rect  fill="blue" ry="0" rx="0" r="0" height="0" width="150" y="402.426" x="2320"></rect><rect  fill="blue" ry="0" rx="0" r="0" height="0" width="150" y="409.689" x="2620"></rect><rect  fill="blue" ry="0" rx="0" r="0" height="0" width="150" y="404.731" x="2920"></rect><rect  fill="green" ry="0" rx="0" r="0" height="336.833" width="150" y="485.167" x="220"></rect><text transform="rotate(90,301.667,653.583)" font-weight="normal" font-size="12.5" font-family="Verdana" fill="black" y="653.583" x="301.667" style="text-anchor: end;">Fusobacterium  mortiferum_13</text>
<rect  fill="green" ry="0" rx="0" r="0" height="330.157" width="150" y="479.041" x="520"></rect><text transform="rotate(90,601.667,644.119)" font-weight="normal" font-size="12.5" font-family="Verdana" fill="black" y="644.119" x="601.667" style="text-anchor: end;">Fusobacterium  mortiferum_13</text>
<rect  fill="green" ry="0" rx="0" r="0" height="346.628" width="150" y="475.372" x="820"></rect><text transform="rotate(90,901.667,648.686)" font-weight="normal" font-size="12.5" font-family="Verdana" fill="black" y="648.686" x="901.667" style="text-anchor: end;">Fusobacterium  mortiferum_13</text>
<rect  fill="green" ry="0" rx="0" r="0" height="366.559" width="150" y="400" x="1120"></rect><text transform="rotate(90,1201.67,583.279)" font-weight="normal" font-size="12.5" font-family="Verdana" fill="black" y="583.279" x="1201.67" style="text-anchor: end;">Fusobacterium  mortiferum_13</text>
<rect  fill="green" ry="0" rx="0" r="0" height="310.109" width="150" y="460.598" x="1420"></rect><text transform="rotate(90,1501.67,615.652)" font-weight="normal" font-size="12.5" font-family="Verdana" fill="black" y="615.652" x="1501.67" style="text-anchor: end;">Fusobacterium  mortiferum_13</text>
<rect  fill="green" ry="0" rx="0" r="0" height="357.118" width="150" y="400.975" x="1720"></rect><text transform="rotate(90,1801.67,579.534)" font-weight="normal" font-size="12.5" font-family="Verdana" fill="black" y="579.534" x="1801.67" style="text-anchor: end;">Fusobacterium  mortiferum_13</text>
<rect  fill="green" ry="0" rx="0" r="0" height="361.318" width="150" y="407.885" x="2020"></rect><text transform="rotate(90,2101.67,588.544)" font-weight="normal" font-size="12.5" font-family="Verdana" fill="black" y="588.544" x="2101.67" style="text-anchor: end;">Fusobacterium  mortiferum_13</text>
<rect  fill="green" ry="0" rx="0" r="0" height="340.333" width="150" y="402.426" x="2320"></rect><text transform="rotate(90,2401.67,572.593)" font-weight="normal" font-size="12.5" font-family="Verdana" fill="black" y="572.593" x="2401.67" style="text-anchor: end;">Fusobacterium  mortiferum_13</text>
<rect  fill="green" ry="0" rx="0" r="0" height="345.126" width="150" y="409.689" x="2620"></rect><text transform="rotate(90,2701.67,582.252)" font-weight="normal" font-size="12.5" font-family="Verdana" fill="black" y="582.252" x="2701.67" style="text-anchor: end;">Fusobacterium  mortiferum_13</text>
<rect  fill="green" ry="0" rx="0" r="0" height="193.382" width="150" y="404.731" x="2920"></rect><text transform="rotate(90,3001.67,501.422)" font-weight="normal" font-size="12.5" font-family="Verdana" fill="black" y="501.422" x="3001.67" style="text-anchor: end;">Fusobacterium  mortiferum_13</text>
<rect  fill="black" ry="0" rx="0" r="0" height="0" width="150" y="822" x="220"></rect><rect  fill="black" ry="0" rx="0" r="0" height="12.8023" width="150" y="809.198" x="520"></rect><text transform="rotate(90,615,815.599)" font-weight="normal" font-size="12.5" font-family="Verdana" fill="white" y="815.599" x="615" style="text-anchor: end;">Fusobacterium  mortiferum_12</text>
<rect  fill="black" ry="0" rx="0" r="0" height="0" width="150" y="822" x="820"></rect><rect  fill="black" ry="0" rx="0" r="0" height="0" width="150" y="766.559" x="1120"></rect><rect  fill="black" ry="0" rx="0" r="0" height="0" width="150" y="770.706" x="1420"></rect><rect  fill="black" ry="0" rx="0" r="0" height="22.1797" width="150" y="758.093" x="1720"></rect><text transform="rotate(90,1815,769.183)" font-weight="normal" font-size="12.5" font-family="Verdana" fill="white" y="769.183" x="1815" style="text-anchor: end;">Fusobacterium  mortiferum_12</text>
<rect  fill="black" ry="0" rx="0" r="0" height="0" width="150" y="769.203" x="2020"></rect><rect  fill="black" ry="0" rx="0" r="0" height="47.8172" width="150" y="742.759" x="2320"></rect><text transform="rotate(90,2415,766.668)" font-weight="normal" font-size="12.5" font-family="Verdana" fill="white" y="766.668" x="2415" style="text-anchor: end;">Fusobacterium  mortiferum_12</text>
<rect  fill="black" ry="0" rx="0" r="0" height="15.6788" width="150" y="754.815" x="2620"></rect><text transform="rotate(90,2715,762.654)" font-weight="normal" font-size="12.5" font-family="Verdana" fill="white" y="762.654" x="2715" style="text-anchor: end;">Fusobacterium  mortiferum_12</text>
<rect  fill="black" ry="0" rx="0" r="0" height="201.395" width="150" y="598.113" x="2920"></rect><text transform="rotate(90,3015,698.811)" font-weight="normal" font-size="12.5" font-family="Verdana" fill="white" y="698.811" x="3015" style="text-anchor: end;">Fusobacterium  mortiferum_12</text>
<rect  fill="white" ry="0" rx="0" r="0" height="0" width="150" y="822" x="220"></rect><rect  fill="white" ry="0" rx="0" r="0" height="0" width="150" y="822" x="520"></rect><rect  fill="white" ry="0" rx="0" r="0" height="0" width="150" y="822" x="820"></rect><rect  fill="white" ry="0" rx="0" r="0" height="55.4415" width="150" y="766.559" x="1120"></rect><text transform="rotate(90,1228.33,794.279)" font-weight="normal" font-size="12.5" font-family="Verdana" fill="red" y="794.279" x="1228.33" style="text-anchor: end;">Fusobacterium  mortiferum_11</text>
<rect  fill="white" ry="0" rx="0" r="0" height="51.2937" width="150" y="770.706" x="1420"></rect><text transform="rotate(90,1528.33,796.353)" font-weight="normal" font-size="12.5" font-family="Verdana" fill="red" y="796.353" x="1528.33" style="text-anchor: end;">Fusobacterium  mortiferum_11</text>
<rect  fill="white" ry="0" rx="0" r="0" height="41.7272" width="150" y="780.273" x="1720"></rect><text transform="rotate(90,1828.33,801.136)" font-weight="normal" font-size="12.5" font-family="Verdana" fill="red" y="801.136" x="1828.33" style="text-anchor: end;">Fusobacterium  mortiferum_11</text>
<rect  fill="white" ry="0" rx="0" r="0" height="47.4356" width="150" y="769.203" x="2020"></rect><text transform="rotate(90,2128.33,792.92)" font-weight="normal" font-size="12.5" font-family="Verdana" fill="red" y="792.92" x="2128.33" style="text-anchor: end;">Fusobacterium  mortiferum_11</text>
<rect  fill="white" ry="0" rx="0" r="0" height="30.9785" width="150" y="790.576" x="2320"></rect><text transform="rotate(90,2428.33,806.066)" font-weight="normal" font-size="12.5" font-family="Verdana" fill="red" y="806.066" x="2428.33" style="text-anchor: end;">Fusobacterium  mortiferum_11</text>
<rect  fill="white" ry="0" rx="0" r="0" height="46.9796" width="150" y="770.494" x="2620"></rect><text transform="rotate(90,2728.33,793.984)" font-weight="normal" font-size="12.5" font-family="Verdana" fill="red" y="793.984" x="2728.33" style="text-anchor: end;">Fusobacterium  mortiferum_11</text>
<rect  fill="white" ry="0" rx="0" r="0" height="22.4915" width="150" y="799.508" x="2920"></rect><text transform="rotate(90,3028.33,810.754)" font-weight="normal" font-size="12.5" font-family="Verdana" fill="red" y="810.754" x="3028.33" style="text-anchor: end;">Fusobacterium  mortiferum_11</text>
<rect  fill="red" ry="0" rx="0" r="0" height="0" width="150" y="822" x="220"></rect><rect  fill="red" ry="0" rx="0" r="0" height="0" width="150" y="822" x="520"></rect><rect  fill="red" ry="0" rx="0" r="0" height="0" width="150" y="822" x="820"></rect><rect  fill="red" ry="0" rx="0" r="0" height="0" width="150" y="822" x="1120"></rect><rect  fill="red" ry="0" rx="0" r="0" height="0" width="150" y="822" x="1420"></rect><rect  fill="red" ry="0" rx="0" r="0" height="0" width="150" y="822" x="1720"></rect><rect  fill="red" ry="0" rx="0" r="0" height="5.36173" width="150" y="816.638" x="2020"></rect><text transform="rotate(90,2141.67,819.319)" font-weight="normal" font-size="12.5" font-family="Verdana" fill="blue" y="819.319" x="2141.67" style="text-anchor: end;">Fusobacterium  mortiferum_10</text>
<rect  fill="red" ry="0" rx="0" r="0" height="0" width="150" y="821.555" x="2320"></rect><rect  fill="red" ry="0" rx="0" r="0" height="4.52666" width="150" y="817.473" x="2620"></rect><text transform="rotate(90,2741.67,819.737)" font-weight="normal" font-size="12.5" font-family="Verdana" fill="blue" y="819.737" x="2741.67" style="text-anchor: end;">Fusobacterium  mortiferum_10</text>
<rect  fill="red" ry="0" rx="0" r="0" height="0" width="150" y="822" x="2920"></rect><rect  fill="blue" ry="0" rx="0" r="0" height="0" width="150" y="822" x="220"></rect><rect  fill="blue" ry="0" rx="0" r="0" height="0" width="150" y="822" x="520"></rect><rect  fill="blue" ry="0" rx="0" r="0" height="0" width="150" y="822" x="820"></rect><rect  fill="blue" ry="0" rx="0" r="0" height="0" width="150" y="822" x="1120"></rect><rect  fill="blue" ry="0" rx="0" r="0" height="0" width="150" y="822" x="1420"></rect><rect  fill="blue" ry="0" rx="0" r="0" height="0" width="150" y="822" x="1720"></rect><rect  fill="blue" ry="0" rx="0" r="0" height="0" width="150" y="822" x="2020"></rect><rect  fill="blue" ry="0" rx="0" r="0" height="0.445011" width="150" y="821.555" x="2320"></rect><text transform="rotate(90,2335,821.777)" font-weight="normal" font-size="12.5" font-family="Verdana" fill="green" y="821.777" x="2335" style="text-anchor: end;">Fusobacterium  mortiferum_1</text>
<rect  fill="blue" ry="0" rx="0" r="0" height="0" width="150" y="822" x="2620"></rect><rect  fill="blue" ry="0" rx="0" r="0" height="0" width="150" y="822" x="2920"></rect><rect  fill="green" ry="0" rx="0" r="0" height="0" width="150" y="822" x="220"></rect><rect  fill="green" ry="0" rx="0" r="0" height="0" width="150" y="822" x="520"></rect><rect  fill="green" ry="0" rx="0" r="0" height="0" width="150" y="822" x="820"></rect><rect  fill="green" ry="0" rx="0" r="0" height="0" width="150" y="822" x="1120"></rect><rect  fill="green" ry="0" rx="0" r="0" height="0" width="150" y="822" x="1420"></rect><rect  fill="green" ry="0" rx="0" r="0" height="0" width="150" y="822" x="1720"></rect><rect  fill="green" ry="0" rx="0" r="0" height="0" width="150" y="822" x="2020"></rect><rect  fill="green" ry="0" rx="0" r="0" height="0" width="150" y="822" x="2320"></rect><rect  fill="green" ry="0" rx="0" r="0" height="0" width="150" y="822" x="2620"></rect><rect  fill="green" ry="0" rx="0" r="0" height="0" width="150" y="822" x="2920"></rect><text transform="rotate(-45,220,360)" font-weight="normal" font-size="20" font-family="Verdana" fill="black" y="360" x="220" style="text-anchor:start;">Greta1</text>
<text transform="rotate(-45,520,360)" font-weight="normal" font-size="20" font-family="Verdana" fill="black" y="360" x="520" style="text-anchor:start;">Moe</text>
<text transform="rotate(-45,820,360)" font-weight="normal" font-size="20" font-family="Verdana" fill="black" y="360" x="820" style="text-anchor:start;">Peapod</text>
<text transform="rotate(-45,1120,360)" font-weight="normal" font-size="20" font-family="Verdana" fill="black" y="360" x="1120" style="text-anchor:start;">Beauty</text>
<text transform="rotate(-45,1420,360)" font-weight="normal" font-size="20" font-family="Verdana" fill="black" y="360" x="1420" style="text-anchor:start;">Beauty</text>
<text transform="rotate(-45,1720,360)" font-weight="normal" font-size="20" font-family="Verdana" fill="black" y="360" x="1720" style="text-anchor:start;">Brownie</text>
<text transform="rotate(-45,2020,360)" font-weight="normal" font-size="20" font-family="Verdana" fill="black" y="360" x="2020" style="text-anchor:start;">Daisy</text>
<text transform="rotate(-45,2320,360)" font-weight="normal" font-size="20" font-family="Verdana" fill="black" y="360" x="2320" style="text-anchor:start;">Annie</text>
<text transform="rotate(-45,2620,360)" font-weight="normal" font-size="20" font-family="Verdana" fill="black" y="360" x="2620" style="text-anchor:start;">Happy</text>
<text transform="rotate(-45,2920,360)" font-weight="normal" font-size="20" font-family="Verdana" fill="black" y="360" x="2920" style="text-anchor:start;">Rocky</text>
<text transform="rotate(0,20,400)" font-weight="normal" font-size="20" font-family="Verdana" fill="red" y="400" x="20" style="text-anchor:start;">Fusobacterium  mortiferum_9</text>
<path d="M70 400 L220 400" stroke="black" stroke-width="2"/><path d="M370 400 L520 400" stroke="black" stroke-width="2"/>
<path d="M670 400 L820 400" stroke="black" stroke-width="2"/>
<path d="M970 400 L1120 400" stroke="black" stroke-width="2"/>
<path d="M1270 400 L1420 400" stroke="black" stroke-width="2"/>
<path d="M1570 400 L1720 400" stroke="black" stroke-width="2"/>
<path d="M1870 400 L2020 400" stroke="black" stroke-width="2"/>
<path d="M2170 400 L2320 400" stroke="black" stroke-width="2"/>
<path d="M2470 400 L2620 400" stroke="black" stroke-width="2"/>
<path d="M2770 400 L2920 400" stroke="black" stroke-width="2"/>
<text transform="rotate(0,3440,400)" font-weight="normal" font-size="20" font-family="Verdana" fill="red" y="400" x="3440" style="text-anchor:end;">Fusobacterium  mortiferum_8</text>
<path d="M3390 400 L3070 403.935" stroke="white" stroke-width="2"/><path d="M370 400 L520 400" stroke="white" stroke-width="2"/>
<path d="M670 400 L820 400" stroke="white" stroke-width="2"/>
<path d="M970 400 L1120 400" stroke="white" stroke-width="2"/>
<path d="M1270 400 L1420 400" stroke="white" stroke-width="2"/>
<path d="M1570 400 L1720 400" stroke="white" stroke-width="2"/>
<path d="M1870 400 L2020 400" stroke="white" stroke-width="2"/>
<path d="M2170 400 L2320 400" stroke="white" stroke-width="2"/>
<path d="M2470 400 L2620 400" stroke="white" stroke-width="2"/>
<path d="M2770 400 L2920 403.935" stroke="white" stroke-width="2"/>
<text transform="rotate(0,20,440.19)" font-weight="normal" font-size="20" font-family="Verdana" fill="red" y="440.19" x="20" style="text-anchor:start;">Fusobacterium  mortiferum_7</text>
<path d="M70 440.19 L220 456.175" stroke="red" stroke-width="2"/><path d="M370 456.175 L520 448.426" stroke="red" stroke-width="2"/>
<path d="M670 448.426 L820 444.369" stroke="red" stroke-width="2"/>
<path d="M970 444.369 L1120 400" stroke="red" stroke-width="2"/>
<path d="M1270 400 L1420 400" stroke="red" stroke-width="2"/>
<path d="M1570 400 L1720 400" stroke="red" stroke-width="2"/>
<path d="M1870 400 L2020 407.885" stroke="red" stroke-width="2"/>
<path d="M2170 407.885 L2320 400" stroke="red" stroke-width="2"/>
<path d="M2470 400 L2620 402.972" stroke="red" stroke-width="2"/>
<path d="M2770 402.972 L2920 403.935" stroke="red" stroke-width="2"/>
<text transform="rotate(0,3440,440.19)" font-weight="normal" font-size="20" font-family="Verdana" fill="red" y="440.19" x="3440" style="text-anchor:end;">Fusobacterium  mortiferum_6</text>
<path d="M3390 440.19 L3070 403.935" stroke="blue" stroke-width="2"/><path d="M370 456.175 L520 448.426" stroke="blue" stroke-width="2"/>
<path d="M670 448.426 L820 444.369" stroke="blue" stroke-width="2"/>
<path d="M970 444.369 L1120 400" stroke="blue" stroke-width="2"/>
<path d="M1270 400 L1420 400" stroke="blue" stroke-width="2"/>
<path d="M1570 400 L1720 400" stroke="blue" stroke-width="2"/>
<path d="M1870 400 L2020 407.885" stroke="blue" stroke-width="2"/>
<path d="M2170 407.885 L2320 400" stroke="blue" stroke-width="2"/>
<path d="M2470 400 L2620 405.446" stroke="blue" stroke-width="2"/>
<path d="M2770 405.446 L2920 403.935" stroke="blue" stroke-width="2"/>
<text transform="rotate(0,20,480.381)" font-weight="normal" font-size="20" font-family="Verdana" fill="red" y="480.381" x="20" style="text-anchor:start;">Fusobacterium  mortiferum_5</text>
<path d="M70 480.381 L220 456.175" stroke="green" stroke-width="2"/><path d="M370 456.175 L520 448.426" stroke="green" stroke-width="2"/>
<path d="M670 448.426 L820 444.369" stroke="green" stroke-width="2"/>
<path d="M970 444.369 L1120 400" stroke="green" stroke-width="2"/>
<path d="M1270 400 L1420 400" stroke="green" stroke-width="2"/>
<path d="M1570 400 L1720 400" stroke="green" stroke-width="2"/>
<path d="M1870 400 L2020 407.885" stroke="green" stroke-width="2"/>
<path d="M2170 407.885 L2320 400" stroke="green" stroke-width="2"/>
<path d="M2470 400 L2620 407.544" stroke="green" stroke-width="2"/>
<path d="M2770 407.544 L2920 403.935" stroke="green" stroke-width="2"/>
<text transform="rotate(0,3440,480.381)" font-weight="normal" font-size="20" font-family="Verdana" fill="red" y="480.381" x="3440" style="text-anchor:end;">Fusobacterium  mortiferum_4</text>
<path d="M3390 480.381 L3070 403.935" stroke="black" stroke-width="2"/><path d="M370 456.175 L520 448.426" stroke="black" stroke-width="2"/>
<path d="M670 448.426 L820 444.369" stroke="black" stroke-width="2"/>
<path d="M970 444.369 L1120 400" stroke="black" stroke-width="2"/>
<path d="M1270 400 L1420 400" stroke="black" stroke-width="2"/>
<path d="M1570 400 L1720 400" stroke="black" stroke-width="2"/>
<path d="M1870 400 L2020 407.885" stroke="black" stroke-width="2"/>
<path d="M2170 407.885 L2320 402.426" stroke="black" stroke-width="2"/>
<path d="M2470 402.426 L2620 407.544" stroke="black" stroke-width="2"/>
<path d="M2770 407.544 L2920 403.935" stroke="black" stroke-width="2"/>
<text transform="rotate(0,20,520.571)" font-weight="normal" font-size="20" font-family="Verdana" fill="red" y="520.571" x="20" style="text-anchor:start;">Fusobacterium  mortiferum_3</text>
<path d="M70 520.571 L220 485.167" stroke="white" stroke-width="2"/><path d="M370 485.167 L520 472.997" stroke="white" stroke-width="2"/>
<path d="M670 472.997 L820 466.904" stroke="white" stroke-width="2"/>
<path d="M970 466.904 L1120 400" stroke="white" stroke-width="2"/>
<path d="M1270 400 L1420 400" stroke="white" stroke-width="2"/>
<path d="M1570 400 L1720 400" stroke="white" stroke-width="2"/>
<path d="M1870 400 L2020 407.885" stroke="white" stroke-width="2"/>
<path d="M2170 407.885 L2320 402.426" stroke="white" stroke-width="2"/>
<path d="M2470 402.426 L2620 409.292" stroke="white" stroke-width="2"/>
<path d="M2770 409.292 L2920 403.935" stroke="white" stroke-width="2"/>
<text transform="rotate(0,3440,520.571)" font-weight="normal" font-size="20" font-family="Verdana" fill="red" y="520.571" x="3440" style="text-anchor:end;">Fusobacterium  mortiferum_2</text>
<path d="M3390 520.571 L3070 404.731" stroke="red" stroke-width="2"/><path d="M370 485.167 L520 472.997" stroke="red" stroke-width="2"/>
<path d="M670 472.997 L820 466.904" stroke="red" stroke-width="2"/>
<path d="M970 466.904 L1120 400" stroke="red" stroke-width="2"/>
<path d="M1270 400 L1420 400" stroke="red" stroke-width="2"/>
<path d="M1570 400 L1720 400" stroke="red" stroke-width="2"/>
<path d="M1870 400 L2020 407.885" stroke="red" stroke-width="2"/>
<path d="M2170 407.885 L2320 402.426" stroke="red" stroke-width="2"/>
<path d="M2470 402.426 L2620 409.292" stroke="red" stroke-width="2"/>
<path d="M2770 409.292 L2920 404.731" stroke="red" stroke-width="2"/>
<text transform="rotate(0,20,560.762)" font-weight="normal" font-size="20" font-family="Verdana" fill="red" y="560.762" x="20" style="text-anchor:start;">Fusobacterium  mortiferum_19</text>
<path d="M70 560.762 L220 485.167" stroke="blue" stroke-width="2"/><path d="M370 485.167 L520 472.997" stroke="blue" stroke-width="2"/>
<path d="M670 472.997 L820 466.904" stroke="blue" stroke-width="2"/>
<path d="M970 466.904 L1120 400" stroke="blue" stroke-width="2"/>
<path d="M1270 400 L1420 400" stroke="blue" stroke-width="2"/>
<path d="M1570 400 L1720 400" stroke="blue" stroke-width="2"/>
<path d="M1870 400 L2020 407.885" stroke="blue" stroke-width="2"/>
<path d="M2170 407.885 L2320 402.426" stroke="blue" stroke-width="2"/>
<path d="M2470 402.426 L2620 409.689" stroke="blue" stroke-width="2"/>
<path d="M2770 409.689 L2920 404.731" stroke="blue" stroke-width="2"/>
<text transform="rotate(0,3440,560.762)" font-weight="normal" font-size="20" font-family="Verdana" fill="red" y="560.762" x="3440" style="text-anchor:end;">Fusobacterium  mortiferum_18</text>
<path d="M3390 560.762 L3070 404.731" stroke="green" stroke-width="2"/><path d="M370 485.167 L520 472.997" stroke="green" stroke-width="2"/>
<path d="M670 472.997 L820 475.372" stroke="green" stroke-width="2"/>
<path d="M970 475.372 L1120 400" stroke="green" stroke-width="2"/>
<path d="M1270 400 L1420 400" stroke="green" stroke-width="2"/>
<path d="M1570 400 L1720 400" stroke="green" stroke-width="2"/>
<path d="M1870 400 L2020 407.885" stroke="green" stroke-width="2"/>
<path d="M2170 407.885 L2320 402.426" stroke="green" stroke-width="2"/>
<path d="M2470 402.426 L2620 409.689" stroke="green" stroke-width="2"/>
<path d="M2770 409.689 L2920 404.731" stroke="green" stroke-width="2"/>
<text transform="rotate(0,20,600.952)" font-weight="normal" font-size="20" font-family="Verdana" fill="red" y="600.952" x="20" style="text-anchor:start;">Fusobacterium  mortiferum_17</text>
<path d="M70 600.952 L220 485.167" stroke="black" stroke-width="2"/><path d="M370 485.167 L520 479.041" stroke="black" stroke-width="2"/>
<path d="M670 479.041 L820 475.372" stroke="black" stroke-width="2"/>
<path d="M970 475.372 L1120 400" stroke="black" stroke-width="2"/>
<path d="M1270 400 L1420 400" stroke="black" stroke-width="2"/>
<path d="M1570 400 L1720 400" stroke="black" stroke-width="2"/>
<path d="M1870 400 L2020 407.885" stroke="black" stroke-width="2"/>
<path d="M2170 407.885 L2320 402.426" stroke="black" stroke-width="2"/>
<path d="M2470 402.426 L2620 409.689" stroke="black" stroke-width="2"/>
<path d="M2770 409.689 L2920 404.731" stroke="black" stroke-width="2"/>
<text transform="rotate(0,3440,600.952)" font-weight="normal" font-size="20" font-family="Verdana" fill="red" y="600.952" x="3440" style="text-anchor:end;">Fusobacterium  mortiferum_16</text>
<path d="M3390 600.952 L3070 404.731" stroke="white" stroke-width="2"/><path d="M370 485.167 L520 479.041" stroke="white" stroke-width="2"/>
<path d="M670 479.041 L820 475.372" stroke="white" stroke-width="2"/>
<path d="M970 475.372 L1120 400" stroke="white" stroke-width="2"/>
<path d="M1270 400 L1420 427.589" stroke="white" stroke-width="2"/>
<path d="M1570 427.589 L1720 400" stroke="white" stroke-width="2"/>
<path d="M1870 400 L2020 407.885" stroke="white" stroke-width="2"/>
<path d="M2170 407.885 L2320 402.426" stroke="white" stroke-width="2"/>
<path d="M2470 402.426 L2620 409.689" stroke="white" stroke-width="2"/>
<path d="M2770 409.689 L2920 404.731" stroke="white" stroke-width="2"/>
<text transform="rotate(0,20,641.143)" font-weight="normal" font-size="20" font-family="Verdana" fill="red" y="641.143" x="20" style="text-anchor:start;">Fusobacterium  mortiferum_15</text>
<path d="M70 641.143 L220 485.167" stroke="red" stroke-width="2"/><path d="M370 485.167 L520 479.041" stroke="red" stroke-width="2"/>
<path d="M670 479.041 L820 475.372" stroke="red" stroke-width="2"/>
<path d="M970 475.372 L1120 400" stroke="red" stroke-width="2"/>
<path d="M1270 400 L1420 453.397" stroke="red" stroke-width="2"/>
<path d="M1570 453.397 L1720 400" stroke="red" stroke-width="2"/>
<path d="M1870 400 L2020 407.885" stroke="red" stroke-width="2"/>
<path d="M2170 407.885 L2320 402.426" stroke="red" stroke-width="2"/>
<path d="M2470 402.426 L2620 409.689" stroke="red" stroke-width="2"/>
<path d="M2770 409.689 L2920 404.731" stroke="red" stroke-width="2"/>
<text transform="rotate(0,3440,641.143)" font-weight="normal" font-size="20" font-family="Verdana" fill="red" y="641.143" x="3440" style="text-anchor:end;">Fusobacterium  mortiferum_14</text>
<path d="M3390 641.143 L3070 404.731" stroke="blue" stroke-width="2"/><path d="M370 485.167 L520 479.041" stroke="blue" stroke-width="2"/>
<path d="M670 479.041 L820 475.372" stroke="blue" stroke-width="2"/>
<path d="M970 475.372 L1120 400" stroke="blue" stroke-width="2"/>
<path d="M1270 400 L1420 460.598" stroke="blue" stroke-width="2"/>
<path d="M1570 460.598 L1720 400" stroke="blue" stroke-width="2"/>
<path d="M1870 400 L2020 407.885" stroke="blue" stroke-width="2"/>
<path d="M2170 407.885 L2320 402.426" stroke="blue" stroke-width="2"/>
<path d="M2470 402.426 L2620 409.689" stroke="blue" stroke-width="2"/>
<path d="M2770 409.689 L2920 404.731" stroke="blue" stroke-width="2"/>
<text transform="rotate(0,20,681.333)" font-weight="normal" font-size="20" font-family="Verdana" fill="red" y="681.333" x="20" style="text-anchor:start;">Fusobacterium  mortiferum_13</text>
<path d="M70 681.333 L220 485.167" stroke="green" stroke-width="2"/><path d="M370 485.167 L520 479.041" stroke="green" stroke-width="2"/>
<path d="M670 479.041 L820 475.372" stroke="green" stroke-width="2"/>
<path d="M970 475.372 L1120 400" stroke="green" stroke-width="2"/>
<path d="M1270 400 L1420 460.598" stroke="green" stroke-width="2"/>
<path d="M1570 460.598 L1720 400.975" stroke="green" stroke-width="2"/>
<path d="M1870 400.975 L2020 407.885" stroke="green" stroke-width="2"/>
<path d="M2170 407.885 L2320 402.426" stroke="green" stroke-width="2"/>
<path d="M2470 402.426 L2620 409.689" stroke="green" stroke-width="2"/>
<path d="M2770 409.689 L2920 404.731" stroke="green" stroke-width="2"/>
<text transform="rotate(0,3440,681.333)" font-weight="normal" font-size="20" font-family="Verdana" fill="red" y="681.333" x="3440" style="text-anchor:end;">Fusobacterium  mortiferum_12</text>
<path d="M3390 681.333 L3070 598.113" stroke="black" stroke-width="2"/><path d="M370 822 L520 809.198" stroke="black" stroke-width="2"/>
<path d="M670 809.198 L820 822" stroke="black" stroke-width="2"/>
<path d="M970 822 L1120 766.559" stroke="black" stroke-width="2"/>
<path d="M1270 766.559 L1420 770.706" stroke="black" stroke-width="2"/>
<path d="M1570 770.706 L1720 758.093" stroke="black" stroke-width="2"/>
<path d="M1870 758.093 L2020 769.203" stroke="black" stroke-width="2"/>
<path d="M2170 769.203 L2320 742.759" stroke="black" stroke-width="2"/>
<path d="M2470 742.759 L2620 754.815" stroke="black" stroke-width="2"/>
<path d="M2770 754.815 L2920 598.113" stroke="black" stroke-width="2"/>
<text transform="rotate(0,20,721.524)" font-weight="normal" font-size="20" font-family="Verdana" fill="red" y="721.524" x="20" style="text-anchor:start;">Fusobacterium  mortiferum_11</text>
<path d="M70 721.524 L220 822" stroke="white" stroke-width="2"/><path d="M370 822 L520 822" stroke="white" stroke-width="2"/>
<path d="M670 822 L820 822" stroke="white" stroke-width="2"/>
<path d="M970 822 L1120 766.559" stroke="white" stroke-width="2"/>
<path d="M1270 766.559 L1420 770.706" stroke="white" stroke-width="2"/>
<path d="M1570 770.706 L1720 780.273" stroke="white" stroke-width="2"/>
<path d="M1870 780.273 L2020 769.203" stroke="white" stroke-width="2"/>
<path d="M2170 769.203 L2320 790.576" stroke="white" stroke-width="2"/>
<path d="M2470 790.576 L2620 770.494" stroke="white" stroke-width="2"/>
<path d="M2770 770.494 L2920 799.508" stroke="white" stroke-width="2"/>
<text transform="rotate(0,3440,721.524)" font-weight="normal" font-size="20" font-family="Verdana" fill="red" y="721.524" x="3440" style="text-anchor:end;">Fusobacterium  mortiferum_10</text>
<path d="M3390 721.524 L3070 822" stroke="red" stroke-width="2"/><path d="M370 822 L520 822" stroke="red" stroke-width="2"/>
<path d="M670 822 L820 822" stroke="red" stroke-width="2"/>
<path d="M970 822 L1120 822" stroke="red" stroke-width="2"/>
<path d="M1270 822 L1420 822" stroke="red" stroke-width="2"/>
<path d="M1570 822 L1720 822" stroke="red" stroke-width="2"/>
<path d="M1870 822 L2020 816.638" stroke="red" stroke-width="2"/>
<path d="M2170 816.638 L2320 821.555" stroke="red" stroke-width="2"/>
<path d="M2470 821.555 L2620 817.473" stroke="red" stroke-width="2"/>
<path d="M2770 817.473 L2920 822" stroke="red" stroke-width="2"/>
<text transform="rotate(0,20,761.714)" font-weight="normal" font-size="20" font-family="Verdana" fill="red" y="761.714" x="20" style="text-anchor:start;">Fusobacterium  mortiferum_1</text>
<path d="M70 761.714 L220 822" stroke="blue" stroke-width="2"/><path d="M370 822 L520 822" stroke="blue" stroke-width="2"/>
<path d="M670 822 L820 822" stroke="blue" stroke-width="2"/>
<path d="M970 822 L1120 822" stroke="blue" stroke-width="2"/>
<path d="M1270 822 L1420 822" stroke="blue" stroke-width="2"/>
<path d="M1570 822 L1720 822" stroke="blue" stroke-width="2"/>
<path d="M1870 822 L2020 822" stroke="blue" stroke-width="2"/>
<path d="M2170 822 L2320 821.555" stroke="blue" stroke-width="2"/>
<path d="M2470 821.555 L2620 822" stroke="blue" stroke-width="2"/>
<path d="M2770 822 L2920 822" stroke="blue" stroke-width="2"/>
<text transform="rotate(0,3440,761.714)" font-weight="normal" font-size="20" font-family="Verdana" fill="blue" y="761.714" x="3440" style="text-anchor:end;">__other</text>
<path d="M3390 761.714 L3070 822" stroke="green" stroke-width="2"/><path d="M370 822 L520 822" stroke="green" stroke-width="2"/>
<path d="M670 822 L820 822" stroke="green" stroke-width="2"/>
<path d="M970 822 L1120 822" stroke="green" stroke-width="2"/>
<path d="M1270 822 L1420 822" stroke="green" stroke-width="2"/>
<path d="M1570 822 L1720 822" stroke="green" stroke-width="2"/>
<path d="M1870 822 L2020 822" stroke="green" stroke-width="2"/>
<path d="M2170 822 L2320 822" stroke="green" stroke-width="2"/>
<path d="M2470 822 L2620 822" stroke="green" stroke-width="2"/>
<path d="M2770 822 L2920 822" stroke="green" stroke-width="2"/>
</svg>
